<svg width="1043" height="720" viewBox="0 0 1043 720" fill="none" xmlns="http://www.w3.org/2000/svg">
<path fill-rule="evenodd" clip-rule="evenodd" d="M689.073 -320.206C769.83 -266.802 928.244 -615.899 1000.22 -546.202C1063.81 -484.633 843.452 -274.539 857.346 -157.266C872.753 -27.2158 1099.62 -108.652 1069.58 39.2229C1040.89 180.445 862.077 127.742 776.928 238.619C715.747 318.286 736.176 445.749 686.129 538.536C627.065 648.041 553.129 767.738 468.483 810.474C385.447 852.399 293.535 834.021 253.194 757.12C209.392 673.619 302.401 478.811 253.873 401.364C202.393 319.206 14.1381 474.271 0.988068 354.617C-11.7114 239.063 144.972 137.08 211.931 19.732C250.497 -47.8557 272.252 -124.789 312.29 -190.947C351.433 -255.627 407.345 -295.19 443.371 -362.693C516.918 -500.504 536.767 -806.23 631.879 -789.783C746.232 -770.009 592.444 -384.105 689.073 -320.206Z" fill="url(#paint0_linear_1_94)"/>
<defs>
<linearGradient id="paint0_linear_1_94" x1="729.78" y1="86.931" x2="97.3967" y2="13.1072" gradientUnits="userSpaceOnUse">
<stop stop-color="#4B5BD6"/>
<stop offset="0.661458" stop-color="#CA3A9D"/>
<stop offset="1" stop-color="#F5891C"/>
</linearGradient>
</defs>
</svg>
