<svg width="30" height="30" viewBox="0 0 30 30" fill="none" xmlns="http://www.w3.org/2000/svg">
<rect width="30" height="30" rx="15" fill="black"/>
<path d="M8.14838 11.0714C8.30112 10.8069 8.68297 10.8069 8.83571 11.0714L13.9219 19.881C14.0746 20.1455 13.8837 20.4762 13.5782 20.4762H3.40586C3.10039 20.4762 2.90946 20.1455 3.0622 19.881L8.14838 11.0714Z" fill="#E0E0E0"/>
<path d="M16.877 13.4524C16.1133 14.7751 14.2041 14.7751 13.4404 13.4524C12.6767 12.1296 13.6313 10.4762 15.1587 10.4762C16.6861 10.4762 17.6407 12.1296 16.877 13.4524Z" fill="#E0E0E0"/>
<path d="M21.4818 11.0714C21.6345 10.8069 22.0163 10.8069 22.1691 11.0714L27.2553 19.881C27.408 20.1455 27.2171 20.4762 26.9116 20.4762H16.7392C16.4338 20.4762 16.2428 20.1455 16.3956 19.881L21.4818 11.0714Z" fill="#E0E0E0"/>
</svg>
