<svg version="1.0" xmlns="http://www.w3.org/2000/svg"
 width="500.000000pt" height="500.000000pt" viewBox="0 0 500.000000 500.000000"
 preserveAspectRatio="xMidYMid meet">

<g transform="translate(0.000000,500.000000) scale(0.100000,-0.100000)"
fill="inherit" stroke="none">
<path d="M0 2500 l0 -2500 2500 0 2500 0 0 2500 0 2500 -2500 0 -2500 0 0
-2500z m2157 808 c72 -26 182 -130 218 -203 33 -67 38 -149 11 -190 -10 -15
-248 -297 -529 -627 -392 -461 -519 -604 -546 -615 -79 -33 -218 11 -317 100
-92 83 -146 225 -112 294 8 15 133 168 278 338 778 913 768 902 807 919 46 19
110 14 190 -16z m1391 -8 c131 -61 232 -196 232 -310 0 -43 -5 -63 -22 -86
-13 -17 -251 -298 -530 -626 -385 -452 -515 -599 -539 -607 -185 -64 -471 180
-435 372 7 38 -19 6 647 787 218 256 403 471 412 478 47 39 140 36 235 -8z
m404 -1169 c55 -29 103 -74 136 -131 24 -40 27 -55 27 -135 0 -67 -5 -99 -18
-126 -94 -188 -333 -233 -476 -90 -59 59 -83 113 -89 197 -4 62 -1 79 23 131
53 119 162 187 287 180 43 -3 82 -12 110 -26z"/>
</g>
</svg>